<?xml version="1.0" encoding="UTF-8"?>
<svg version="1.1" xmlns="http://www.w3.org/2000/svg" width="128" height="128">
<path d="M0 0 C0.66 0 1.32 0 2 0 C3.32 2.64 4.64 5.28 6 8 C4.23158577 9.10803692 2.46001024 10.21102726 0.6875 11.3125 C0.12587158 11.67875488 -0.43575684 12.04500977 -1.0144043 12.42236328 C-4.60704605 14.71517162 -8.12316546 16.5062158 -12.09375 18.06640625 C-19.91048158 21.31876328 -19.91048158 21.31876328 -26 27 C-28.3348712 35.41554678 -27.16438028 44.45712574 -26 53 C-25.27748047 53.41137207 -24.55496094 53.82274414 -23.81054688 54.24658203 C-15.84168098 58.78601654 -7.87906352 63.33623756 0.07720947 67.89770508 C1.33679158 68.61979672 2.59651143 69.34164817 3.85638428 70.06323242 C7.80506748 72.325256 11.74769762 74.59752835 15.6875 76.875 C16.71359375 77.46297363 17.7396875 78.05094727 18.796875 78.65673828 C20.20259766 79.47247314 20.20259766 79.47247314 21.63671875 80.3046875 C22.45873779 80.77890137 23.28075684 81.25311523 24.12768555 81.74169922 C26 83 26 83 27 85 C26.22265625 86.7265625 26.22265625 86.7265625 25.0625 88.625 C24.381875 89.73875 23.70125 90.8525 23 92 C19.45565573 90.65544302 16.19200807 89.08771656 12.88671875 87.234375 C11.89696045 86.68048096 10.90720215 86.12658691 9.88745117 85.5559082 C8.30347534 84.66198364 8.30347534 84.66198364 6.6875 83.75 C5.59477783 83.13535889 4.50205566 82.52071777 3.3762207 81.88745117 C-4.55046235 77.414955 -12.44380965 72.88629342 -20.3125 68.3125 C-21.83194214 67.43126465 -21.83194214 67.43126465 -23.38208008 66.53222656 C-24.79589966 65.70609863 -24.79589966 65.70609863 -26.23828125 64.86328125 C-27.4763855 64.14072144 -27.4763855 64.14072144 -28.73950195 63.40356445 C-29.48546631 62.94038818 -30.23143066 62.47721191 -31 62 C-31.74362793 61.61908203 -32.48725586 61.23816406 -33.25341797 60.84570312 C-36.04270803 57.89811676 -35.6703148 54.46128091 -35.70703125 50.60546875 C-35.72271652 49.78049393 -35.73840179 48.9555191 -35.75456238 48.10554504 C-35.7791897 46.35978869 -35.79276927 44.61384672 -35.79614258 42.86791992 C-35.81239319 40.20500272 -35.89778859 37.55003721 -35.98632812 34.88867188 C-36.19398799 22.69684412 -36.19398799 22.69684412 -33.39599609 18.72045898 C-31.01089977 17.08592317 -28.6826783 16.07705956 -26 15 C-23.88430885 13.81593374 -21.78071352 12.61008261 -19.6875 11.38671875 C-17.4604165 10.14988734 -15.23121364 8.9168651 -13 7.6875 C-10.74920692 6.44283934 -8.49916316 5.19682234 -6.25 3.94921875 C-5.26515625 3.40612061 -4.2803125 2.86302246 -3.265625 2.3034668 C-1.10373903 1.19050185 -1.10373903 1.19050185 0 0 Z " fill="#A444E1" transform="translate(47,36)"/>
<path d="M0 0 C2.0192222 1.01530377 4.01369 2.08092841 5.984375 3.1875 C7.08394531 3.80367187 8.18351562 4.41984375 9.31640625 5.0546875 C11.01603516 6.01761719 11.01603516 6.01761719 12.75 7 C13.89855469 7.64195313 15.04710938 8.28390625 16.23046875 8.9453125 C24.73155323 13.73155323 24.73155323 13.73155323 27 16 C27.24050903 17.87295532 27.24050903 17.87295532 27.22705078 20.17431641 C27.22689972 21.03505768 27.22674866 21.89579895 27.22659302 22.78262329 C27.21627045 23.71287323 27.20594788 24.64312317 27.1953125 25.6015625 C27.1924826 26.55316254 27.18965271 27.50476257 27.18673706 28.48519897 C27.17551989 31.53192592 27.15041263 34.57836154 27.125 37.625 C27.11497218 39.68749576 27.10584599 41.74999612 27.09765625 43.8125 C27.07557554 48.87511267 27.0410353 53.9375069 27 59 C24.36 59 21.72 59 19 59 C19.07968018 57.94200195 19.15936035 56.88400391 19.24145508 55.79394531 C21.2849032 36.68308678 21.2849032 36.68308678 15.98828125 19.05371094 C10.71121028 14.40866126 3.98265224 11.0795137 -3 10 C-7.30471837 10.36702028 -10.30619612 11.45904965 -13.9921875 13.66796875 C-14.93384766 14.22532715 -15.87550781 14.78268555 -16.84570312 15.35693359 C-17.84537109 15.96102051 -18.84503906 16.56510742 -19.875 17.1875 C-22.00764481 18.45470934 -24.14046276 19.72162733 -26.2734375 20.98828125 C-27.37268555 21.64521973 -28.47193359 22.3021582 -29.60449219 22.97900391 C-35.21323785 26.31731255 -40.85794084 29.59335948 -46.5 32.875 C-48.53141951 34.0596052 -50.56268539 35.24447391 -52.59375 36.4296875 C-54.0625 37.28645833 -55.53125 38.14322917 -57 39 C-59.0245738 37.06745228 -60.42105792 35.36841312 -62 33 C-62 32.01 -62 31.02 -62 30 C-61.27748047 29.58862793 -60.55496094 29.17725586 -59.81054688 28.75341797 C-56.37297219 26.79521647 -52.93619327 24.83562421 -49.5 22.875 C-48.87440186 22.51807068 -48.24880371 22.16114136 -47.60424805 21.793396 C-37.52196527 16.03830223 -27.4768837 10.22330145 -17.46679688 4.34326172 C-16.53931641 3.79943848 -15.61183594 3.25561523 -14.65625 2.6953125 C-13.84994141 2.22109863 -13.04363281 1.74688477 -12.21289062 1.25830078 C-11.48263672 0.84306152 -10.75238281 0.42782227 -10 0 C-9.36771484 -0.42684082 -8.73542969 -0.85368164 -8.08398438 -1.29345703 C-4.89381023 -2.37503669 -3.04464781 -1.29057281 0 0 Z " fill="#CC4CB8" transform="translate(69,5)"/>
<path d="M0 0 C2.64 0 5.28 0 8 0 C8.20884949 8.50142149 8.36859675 17.00176595 8.46630955 25.50512123 C8.51321686 29.45404492 8.57679045 33.40120983 8.67895508 37.34912109 C8.77699952 41.16182994 8.83060624 44.9728517 8.85389519 48.78672409 C8.87048204 50.23898258 8.90287767 51.69115203 8.95157051 53.14268875 C9.31709381 64.49402845 9.31709381 64.49402845 6.11378479 68.15670776 C3.80444097 69.72200272 1.55453246 70.88875887 -1 72 C-1.91160889 72.55800293 -2.82321777 73.11600586 -3.76245117 73.69091797 C-6.2301891 75.09901594 -8.7055192 76.49215529 -11.1875 77.875 C-12.05052734 78.37257813 -12.91355469 78.87015625 -13.80273438 79.3828125 C-14.64513672 79.85203125 -15.48753906 80.32125 -16.35546875 80.8046875 C-17.10465576 81.22733887 -17.85384277 81.64999023 -18.62573242 82.08544922 C-22.72331385 83.66380809 -25.79987243 83.50404324 -29.83325195 81.81005859 C-30.79191162 81.26172363 -31.75057129 80.71338867 -32.73828125 80.1484375 C-33.80626953 79.54386719 -34.87425781 78.93929687 -35.97460938 78.31640625 C-37.07611328 77.67574219 -38.17761719 77.03507812 -39.3125 76.375 C-40.40240234 75.75753906 -41.49230469 75.14007813 -42.61523438 74.50390625 C-48.9135805 70.90593342 -55.03422498 67.12639946 -61 63 C-59.68 60.36 -58.36 57.72 -57 55 C-53.05272125 56.44834731 -49.62298117 58.3261944 -46.03515625 60.51171875 C-44.90529297 61.18654297 -43.77542969 61.86136719 -42.61132812 62.55664062 C-40.83130923 63.62209468 -39.05489699 64.69216213 -37.28637695 65.77661133 C-35.56607868 66.82863347 -33.83198019 67.85798301 -32.09765625 68.88671875 C-31.07164307 69.50764404 -30.04562988 70.12856934 -28.98852539 70.76831055 C-25.27881809 72.29722757 -23.8453542 72.09825734 -20 71 C-19.26563217 70.79162003 -18.53126434 70.58324005 -17.77464294 70.36854553 C-11.29932504 68.27749087 -5.24145288 65.47219728 -1 60 C2.10295674 50.97064294 1.1820443 40.85589333 0.76818848 31.43096924 C0.6331396 27.88527211 0.60763106 24.3388594 0.57226562 20.79101562 C0.48730061 13.85620971 0.28264164 6.92949407 0 0 Z " fill="#C14AC3" transform="translate(108,29)"/>
<path d="M0 0 C3.36137911 1.93210901 5.58246701 3.74709077 6.92382812 7.46289062 C8.1113811 13.40065548 8.19858279 19.50582078 6.125 25.25 C2.93446312 29.63005774 -1.78645322 31.69677615 -6.875 33.25 C-13.04518124 33.95699993 -18.14537795 31.87399691 -23.140625 28.328125 C-26.38725585 25.33546788 -27.00035517 22.2330663 -27.4375 17.93554688 C-27.67521151 7.72138041 -27.67521151 7.72138041 -24.63867188 3.55273438 C-17.23061806 -3.27581067 -8.92155662 -4.41020259 0 0 Z M-17.875 11.25 C-18.76448247 14.10570687 -18.75717078 16.39316881 -17.875 19.25 C-15.31967406 21.98142887 -15.31967406 21.98142887 -11.875 23.25 C-9.27610217 23.33024658 -9.27610217 23.33024658 -6.875 22.25 C-5.946875 21.899375 -5.01875 21.54875 -4.0625 21.1875 C-1.46007617 19.28806999 -1.46007617 19.28806999 -1.1875 15.3125 C-1.40754742 11.69171977 -1.74817624 11.36529433 -4.625 8.75 C-10.25006419 6.15381653 -13.41637035 7.19670032 -17.875 11.25 Z " fill="#001D6C" transform="translate(73.875,48.75)"/>
</svg>
